<svg width="237" height="180" viewBox="0 0 237 180" fill="none" xmlns="http://www.w3.org/2000/svg">
<path d="M114.994 178.096L4.67604 112.919C1.16387 110.945 -1.84656 107.71 1.57555 105.588L112.286 41.7996C113.946 40.7707 116.467 40.0954 118.159 41.0793L233.945 108.269C237.457 110.308 238.087 115.987 234.588 118.044L129.532 177.993C125.045 180.595 119.517 180.634 114.994 178.096Z" fill="#5B36A0"/>
<path d="M114.994 175.088L4.67604 109.911C1.16387 107.936 -1.84656 104.702 1.57555 102.579L112.286 38.7912C113.946 37.7623 116.467 37.087 118.159 38.071L233.945 105.261C237.457 107.3 238.087 112.978 234.588 115.036L129.532 174.985C125.045 177.587 119.517 177.626 114.994 175.088Z" fill="#6862E6"/>
<g style="mix-blend-mode:multiply" opacity="0.25">
<path d="M124.09 89.0938L102.322 101.512C102.322 101.512 135.855 121.969 142.712 124.85L155.249 106.843" fill="url(#paint0_linear_2_10)"/>
</g>
<g style="mix-blend-mode:multiply" opacity="0.25">
<path d="M116.57 148.67L94.7961 136.277L73.022 148.695C73.022 148.695 84.3626 155.615 95.2014 161.969C102.084 157.101 108.973 152.181 116.57 148.67Z" fill="url(#paint1_linear_2_10)"/>
</g>
<g style="mix-blend-mode:multiply" opacity="0.46">
<path d="M69.6576 72.1419L55.8469 80.0198C55.8469 80.0198 57.0176 87.2417 63.8747 90.1227L81.9566 78.5471" fill="url(#paint2_linear_2_10)"/>
</g>
<ellipse cx="76.4183" cy="74.1548" rx="8.33015" ry="5.86499" fill="#68E1FD"/>
<ellipse cx="76.4117" cy="70.6949" rx="6.23957" ry="2.55307" fill="#974C26"/>
<path fill-rule="evenodd" clip-rule="evenodd" d="M76.058 62.9843C76.1481 64.1354 76.1867 65.2865 76.1867 66.4377C76.1803 67.8782 76.1095 69.3187 75.9551 70.7528C75.4598 70.0647 74.9709 69.3444 74.4563 68.5342C73.7938 67.4988 73.1763 66.4377 72.6102 65.3509C72.0839 64.3844 71.6344 63.3781 71.2658 62.3412C70.8559 61.215 70.527 60.0609 70.2816 58.8878C70.2173 58.6048 70.1594 58.2704 70.1079 57.9617V57.8524V57.5823C70.0565 56.9778 70.005 56.3347 70.005 55.6916C69.9764 53.5046 70.3991 51.3351 71.2465 49.3186C73.4987 52.5842 75.0172 56.2984 75.6978 60.2061C75.7407 60.4376 75.7814 60.6713 75.82 60.9071C75.82 60.8621 75.9101 61.3315 75.9101 61.5052L75.9744 62.0904C76.0044 62.3862 76.0323 62.6842 76.058 62.9843ZM72.9126 53.4919C72.9126 53.492 72.9126 53.4921 72.9125 53.4923H72.9061C72.9083 53.4921 72.9104 53.492 72.9126 53.4919ZM72.9126 53.4919C73.0709 53.483 73.2296 53.5005 73.3821 53.5437C73.2277 53.3722 73.0712 53.205 72.9125 53.0421C72.9455 53.1902 72.9456 53.3438 72.9126 53.4919Z" fill="#999A1C"/>
<path fill-rule="evenodd" clip-rule="evenodd" d="M80.0847 64.3476C79.5379 65.3959 78.9719 66.3541 78.3286 67.3251C77.5503 68.5406 76.6883 69.711 75.8328 70.8493C75.7749 70.0068 75.7749 69.1322 75.7749 68.174C75.7749 66.9457 75.8264 65.7239 75.9421 64.502C76.0215 63.4039 76.1872 62.3137 76.4375 61.2415C76.7002 60.0715 77.0463 58.9217 77.4731 57.801C77.5889 57.5052 77.7111 57.2158 77.8333 56.9264L77.8333 56.9264L77.8655 56.8235L77.9941 56.5855C78.2836 56.026 78.5924 55.473 78.9269 54.9392C80.0886 53.0812 81.6215 51.483 83.4296 50.2447C83.5602 54.2126 82.8294 58.1617 81.2876 61.8203C81.1975 62.0304 81.1053 62.2447 81.011 62.4634L80.7601 63.0164L80.4964 63.5502C80.3635 63.816 80.2262 64.0818 80.0847 64.3476ZM82.7928 54.2704C82.7495 54.4156 82.6748 54.5495 82.5741 54.6627C82.6996 54.7289 82.8145 54.8134 82.915 54.9135C82.8807 54.7077 82.84 54.4933 82.7928 54.2704Z" fill="#999A1C"/>
<path fill-rule="evenodd" clip-rule="evenodd" d="M80.2133 69.1515C79.5744 69.5245 78.9311 69.8718 78.2836 70.1934C77.4731 70.5985 76.6433 70.9586 75.8135 71.3059C76.0579 70.8364 76.3345 70.3541 76.6433 69.8397C77.0485 69.1966 77.4731 68.5535 77.9298 67.9104C78.3267 67.3429 78.7676 66.8075 79.2485 66.3091C79.7689 65.7618 80.3278 65.2525 80.9209 64.785L81.3969 64.4313L81.4484 64.3862L81.5963 64.2962C81.9373 64.0904 82.2782 63.8911 82.632 63.711C83.8556 63.0823 85.1957 62.7123 86.5687 62.6242C85.3586 64.805 83.6909 66.6983 81.68 68.174L81.3197 68.4377L81.011 68.6564L80.6958 68.8557L80.2133 69.1515ZM84.9091 64.5856C84.8391 64.6503 84.7556 64.6986 84.6647 64.7271V64.7335C84.7076 64.8142 84.7379 64.9009 84.7547 64.9907C84.8105 64.8578 84.8619 64.7228 84.9091 64.5856Z" fill="#999A1C"/>
<path fill-rule="evenodd" clip-rule="evenodd" d="M76.058 62.9843C76.1481 64.1354 76.1867 65.2865 76.1867 66.4377C76.1803 67.8782 76.1095 69.3187 75.9551 70.7528C75.4598 70.0647 74.9709 69.3444 74.4563 68.5342C73.7938 67.4988 73.1763 66.4377 72.6102 65.3509C72.0839 64.3844 71.6344 63.3781 71.2658 62.3412C70.8559 61.215 70.527 60.0609 70.2816 58.8878C70.2173 58.6048 70.1594 58.2704 70.1079 57.9617V57.8524V57.5823C70.0565 56.9778 70.005 56.3347 70.005 55.6916C69.9764 53.5046 70.3991 51.3351 71.2465 49.3186C73.4987 52.5842 75.0172 56.2984 75.6978 60.2061C75.7407 60.4376 75.7814 60.6713 75.82 60.9071C75.82 60.8621 75.9101 61.3315 75.9101 61.5052L75.9744 62.0904C76.0044 62.3862 76.0323 62.6842 76.058 62.9843ZM72.9126 53.4919C72.9126 53.492 72.9126 53.4921 72.9125 53.4923H72.9061C72.9083 53.4921 72.9104 53.492 72.9126 53.4919ZM72.9126 53.4919C73.0709 53.483 73.2296 53.5005 73.3821 53.5437C73.2277 53.3722 73.0712 53.205 72.9125 53.0421C72.9455 53.1902 72.9456 53.3438 72.9126 53.4919Z" fill="#999A1C"/>
<path fill-rule="evenodd" clip-rule="evenodd" d="M80.0847 64.3476C79.5379 65.3959 78.9719 66.3541 78.3286 67.3251C77.5503 68.5406 76.6883 69.711 75.8328 70.8493C75.7749 70.0068 75.7749 69.1322 75.7749 68.174C75.7749 66.9457 75.8264 65.7239 75.9421 64.502C76.0215 63.4039 76.1872 62.3137 76.4375 61.2415C76.7002 60.0715 77.0463 58.9217 77.4731 57.801C77.5889 57.5052 77.7111 57.2158 77.8333 56.9264L77.8333 56.9264L77.8655 56.8235L77.9941 56.5855C78.2836 56.026 78.5924 55.473 78.9269 54.9392C80.0886 53.0812 81.6215 51.483 83.4296 50.2447C83.5602 54.2126 82.8294 58.1617 81.2876 61.8203C81.1975 62.0304 81.1053 62.2447 81.011 62.4634L80.7601 63.0164L80.4964 63.5502C80.3635 63.816 80.2262 64.0818 80.0847 64.3476ZM82.7928 54.2704C82.7495 54.4156 82.6748 54.5495 82.5741 54.6627C82.6996 54.7289 82.8145 54.8134 82.915 54.9135C82.8807 54.7077 82.84 54.4933 82.7928 54.2704Z" fill="#999A1C"/>
<path fill-rule="evenodd" clip-rule="evenodd" d="M80.2133 69.1515C79.5744 69.5245 78.9311 69.8718 78.2836 70.1934C77.4731 70.5985 76.6433 70.9586 75.8135 71.3059C76.0579 70.8364 76.3345 70.3541 76.6433 69.8397C77.0485 69.1966 77.4731 68.5535 77.9298 67.9104C78.3267 67.3429 78.7676 66.8075 79.2485 66.3091C79.7689 65.7618 80.3278 65.2525 80.9209 64.785L81.3969 64.4313L81.4484 64.3862L81.5963 64.2962C81.9373 64.0904 82.2782 63.8911 82.632 63.711C83.8556 63.0823 85.1957 62.7123 86.5687 62.6242C85.3586 64.805 83.6909 66.6983 81.68 68.174L81.3197 68.4377L81.011 68.6564L80.6958 68.8557L80.2133 69.1515ZM84.9091 64.5856C84.8391 64.6503 84.7556 64.6986 84.6647 64.7271V64.7335C84.7076 64.8142 84.7379 64.9009 84.7547 64.9907C84.8105 64.8578 84.8619 64.7228 84.9091 64.5856Z" fill="#999A1C"/>
<path d="M132.735 84.2449L120.687 90.0327C119.762 90.4772 119.158 91.3963 119.118 92.4216C119.077 93.4469 119.607 94.4106 120.494 94.9266L149.048 111.583C150.331 112.332 151.976 111.938 152.779 110.689L159.72 99.8977" fill="#A1482D"/>
<path d="M198.263 56.3283L102.193 0.98392C100.852 0.212765 99.2014 0.214715 97.8619 0.989035C96.5224 1.76336 95.6972 3.19267 95.6965 4.73957V62.3155C95.6965 63.6022 96.3831 64.7911 97.4976 65.4345L199.917 124.541C200.636 124.958 201.523 124.958 202.242 124.543C202.962 124.127 203.405 123.359 203.403 122.528V65.1901C203.4 61.5293 201.44 58.1495 198.263 56.3283Z" fill="#F47B56"/>
<path d="M102.2 5.33764L195.369 58.9264C197.394 60.092 198.642 62.2497 198.643 64.5856V107.743C198.642 108.584 198.193 109.36 197.466 109.781C196.738 110.202 195.842 110.205 195.112 109.788L100.097 55.3058C99.3726 54.891 98.926 54.1207 98.9258 53.2865V7.23476C98.9258 6.45494 99.3413 5.73418 100.016 5.34316C100.691 4.95213 101.523 4.95003 102.2 5.33764Z" fill="white"/>
<ellipse cx="140.964" cy="84.4673" rx="2.02623" ry="2.31515" transform="rotate(-10.9 140.964 84.4673)" fill="#AB643C"/>
<path opacity="0.32" d="M127.242 63.8911L170.539 89.8977L191.927 77.4667L153.712 55.2286" fill="url(#paint3_linear_2_10)"/>
<path d="M180.748 58.7142L133.938 30.1803C133.428 29.8852 132.797 29.8904 132.292 30.1938C131.787 30.4972 131.486 31.0511 131.507 31.6401V47.8974C131.503 48.4956 131.813 49.0521 132.324 49.3636L179.127 77.2931C179.627 77.5774 180.241 77.5738 180.739 77.2835C181.236 76.9933 181.541 76.4603 181.539 75.8847L181.783 60.7271C181.82 59.9199 181.426 59.1539 180.748 58.7142Z" fill="#E2AC00"/>
<path d="M169.549 67.0808C171.228 69.4281 174.18 70.084 176.136 68.5535C178.091 67.0229 178.316 63.8782 176.637 61.5373C174.959 59.1965 172.006 58.5341 170.05 60.0647C168.095 61.5952 167.87 64.7335 169.549 67.0808Z" fill="white"/>
<path d="M164.956 55.8138L145.864 44.3218C145.524 44.1627 145.119 44.2884 144.929 44.6117C144.739 44.9351 144.826 45.35 145.131 45.5694L164.223 57.0614C164.562 57.2205 164.967 57.0948 165.157 56.7715C165.348 56.4481 165.26 56.0332 164.956 55.8138Z" fill="#F2F2F2"/>
<path d="M164.171 60.4827L137.855 44.6433C137.523 44.5271 137.155 44.6662 136.982 44.9734C136.809 45.2806 136.882 45.6673 137.154 45.8909L163.438 61.7367C163.777 61.8957 164.183 61.7701 164.373 61.4467C164.563 61.1233 164.475 60.7085 164.171 60.4891V60.4827Z" fill="#F2F2F2"/>
<path d="M171.408 61.8653L124.624 33.3378C124.113 33.0428 123.483 33.048 122.978 33.3514C122.472 33.6548 122.171 34.2086 122.192 34.7976V51.0485C122.185 51.6477 122.492 52.2069 123.003 52.5212L169.806 80.4506C170.312 80.7414 170.935 80.7365 171.437 80.4379C171.938 80.1393 172.239 79.5934 172.225 79.0101L172.469 63.8525C172.491 63.0492 172.087 62.294 171.408 61.8653Z" fill="#F47B56"/>
<path d="M160.209 70.2319C161.888 72.5792 164.84 73.2352 166.796 71.7046C168.751 70.1741 168.976 67.0293 167.297 64.6885C165.618 62.3476 162.666 61.6853 160.71 63.2158C158.755 64.7464 158.53 67.8846 160.209 70.2319Z" fill="white"/>
<path d="M155.616 58.965L136.511 47.4729C136.171 47.3139 135.766 47.4395 135.576 47.7629C135.386 48.0863 135.473 48.5012 135.778 48.7205L154.869 60.2126C155.209 60.3716 155.614 60.246 155.804 59.9226C155.994 59.5992 155.907 59.1843 155.603 58.965H155.616Z" fill="#F2F2F2"/>
<path d="M154.825 63.666L128.515 47.8009C128.176 47.6419 127.771 47.7675 127.58 48.0909C127.39 48.4143 127.478 48.8292 127.782 49.0485L154.098 64.8878C154.437 65.0469 154.842 64.9213 155.033 64.5979C155.223 64.2745 155.135 63.8596 154.831 63.6402L154.825 63.666Z" fill="#F2F2F2"/>
<path d="M159.668 63.7817L112.871 35.2542C112.361 34.9592 111.731 34.9644 111.225 35.2678C110.72 35.5712 110.419 36.125 110.44 36.714V52.9649C110.436 53.5632 110.746 54.1197 111.257 54.4312L158.06 82.3606C158.566 82.6514 159.19 82.6465 159.691 82.3479C160.192 82.0493 160.494 81.5034 160.479 80.9201L160.723 65.7624C160.744 64.9628 160.344 64.2108 159.668 63.7817Z" fill="#68E1FD"/>
<path d="M159.668 63.7817L112.871 35.2542C112.361 34.9592 111.731 34.9644 111.225 35.2678C110.72 35.5712 110.419 36.125 110.44 36.714V52.9649C110.436 53.5632 110.746 54.1197 111.257 54.4312L158.06 82.3606C158.566 82.6514 159.19 82.6465 159.691 82.3479C160.192 82.0493 160.494 81.5034 160.479 80.9201L160.723 65.7624C160.744 64.9628 160.344 64.2108 159.668 63.7817Z" fill="#68E1FD"/>
<path d="M148.463 72.1483C150.142 74.4956 153.094 75.1516 155.05 73.621C157.005 72.0905 157.23 68.9458 155.551 66.6049C153.873 64.2641 150.92 63.6017 148.964 65.1322C147.009 66.6628 146.803 69.8011 148.463 72.1483Z" fill="white"/>
<path d="M143.87 60.8814L124.772 49.3894C124.432 49.2303 124.027 49.3559 123.837 49.6793C123.647 50.0027 123.734 50.4176 124.038 50.637L143.13 62.129C143.47 62.288 143.875 62.1624 144.065 61.839C144.255 61.5156 144.168 61.1007 143.864 60.8814H143.87Z" fill="#F2F2F2"/>
<path d="M143.079 65.5567L116.763 49.7173C116.423 49.5583 116.018 49.6839 115.828 50.0073C115.638 50.3307 115.726 50.7456 116.03 50.9649L142.345 66.8042C142.685 66.9633 143.09 66.8377 143.28 66.5143C143.47 66.1909 143.383 65.776 143.079 65.5567Z" fill="#F2F2F2"/>
<path d="M98.2504 62.1869C95.2264 64.7891 92.9394 68.14 91.6184 71.904C89.2898 78.3349 95.1113 88.843 95.1113 88.843L104.168 81.6725" fill="#FF8F6F"/>
<path d="M97.2727 147.21L94.8154 145.853L95.4587 142.342C95.4587 142.342 99.1188 142.689 99.4404 143.988" fill="#003B94"/>
<path d="M98.1731 147.158C98.7263 146.818 99.3052 146.515 99.8777 146.213C101.299 145.435 103.351 144.631 104.226 143.171C104.593 142.567 104.547 141.798 104.11 141.242C102.824 139.686 100.006 142.245 98.5654 140.522C98.2824 140.181 98.1473 134.773 98.1473 134.773L92.6668 136.252C92.6668 136.252 91.7405 147.12 91.8434 147.789C91.9464 148.457 93.8311 149.075 93.8311 149.075C94.3924 148.956 94.9282 148.738 95.4135 148.432C95.986 148.014 95.465 142.914 96.1983 143.628C96.9316 144.342 97.2532 147.133 97.2532 147.133C97.5576 147.179 97.8665 147.187 98.1731 147.158Z" fill="#F47B56"/>
<path d="M107.738 152.464L105.281 151.126L105.924 147.615C105.924 147.615 109.584 147.962 109.906 149.261" fill="#003B94"/>
<path d="M108.665 152.412C109.218 152.072 109.797 151.769 110.369 151.467C111.791 150.689 113.843 149.885 114.718 148.425C115.085 147.821 115.038 147.052 114.602 146.496C113.315 144.94 110.498 147.499 109.057 145.776C108.774 145.435 108.639 140.027 108.639 140.027L103.158 141.506C103.158 141.506 102.226 152.412 102.328 153.056C102.431 153.699 104.316 154.342 104.316 154.342C104.877 154.223 105.413 154.005 105.899 153.699C106.471 153.281 105.95 148.181 106.683 148.895C107.417 149.609 107.738 152.4 107.738 152.4C108.045 152.442 108.356 152.446 108.665 152.412Z" fill="#F47B56"/>
<path d="M89.8817 117.133L88.2671 138.721C88.2671 138.721 90.8401 142.271 99.4662 140.297L99.5498 125.744" fill="#3E2928"/>
<path d="M99.8456 121.409C99.6591 123.268 99.8456 143.769 99.8456 143.769C99.8456 143.769 102.232 148.232 112.621 143.769L112.473 126.348" fill="#3E2928"/>
<path d="M89.0774 124.264C89.785 124.753 90.0294 122.239 90.7692 122.67C93.4604 124.232 96.3168 125.492 99.2858 126.425H99.3502C99.4931 126.356 99.658 126.347 99.8072 126.402C99.9564 126.456 100.077 126.569 100.141 126.715C101.975 127.262 103.843 127.691 105.731 128.001C108.156 128.387 110.163 126.592 112.653 126.47C112.653 116.94 112.698 89.814 108.639 84.0262L96.6292 79.9876C96.5713 80.978 90.8013 87.6661 90.9428 95.8205C91.1036 105.01 89.9072 113.679 89.7013 116.554C89.6692 117.042 89.1031 123.743 89.0774 124.264Z" fill="#3E2928"/>
<path d="M109.745 73.068L108.639 84.0005C108.639 84.0005 99.6784 84.3606 95.8188 81.6982V72.4249" fill="#FF8F6F"/>
<path d="M121.137 65.8718L120.224 67.1194C120.711 66.1047 121.14 65.0634 121.51 64.0004C121.768 63.2737 120.603 62.9843 120.346 63.711L120.211 64.084C120.322 63.6981 120.428 63.3101 120.526 62.92C120.606 62.5986 120.41 62.2732 120.089 62.1933C119.767 62.1134 119.442 62.3092 119.362 62.6306C119.11 63.6398 118.807 64.6356 118.455 65.6145C118.651 64.7454 118.793 63.8648 118.879 62.9779C118.957 62.2126 117.754 62.2448 117.683 62.9779C117.583 63.9875 117.402 64.9875 117.143 65.9682C117.143 65.6253 117.111 65.2823 117.046 64.9393C117.028 64.7663 116.937 64.6093 116.795 64.5084C116.763 64.3734 116.725 64.2448 116.68 64.1097C116.585 63.832 116.305 63.6619 116.015 63.7062C115.725 63.7506 115.509 63.9966 115.502 64.2898L115.425 68.7914C115.207 69.2582 114.924 69.6914 114.583 70.0776C115.161 70.4779 115.72 70.9072 116.255 71.3638C116.733 71.7674 117.188 72.1968 117.619 72.65C118.005 72.1698 118.376 71.681 118.732 71.1837C118.776 71.1462 118.815 71.103 118.847 71.0551C119.919 69.4688 121.026 67.9082 122.166 66.3734C122.643 65.8461 121.594 65.2608 121.137 65.8718Z" fill="#FFB5A9"/>
<path d="M104.059 63.1C104.059 63.1 108.292 64.2383 110.009 66.9586C111.085 68.8414 112.032 70.7944 112.846 72.8043L115.972 67.9489C115.972 67.9489 119.767 69.1129 121.272 70.9779C121.272 70.9779 116.77 80.8172 112.846 81.6596C108.922 82.5021 104.754 75.8847 104.754 75.8847C104.754 75.8847 103.892 78.65 104.059 75.6982" fill="#FF8F6F"/>
<path d="M106.748 73.6146C105.517 72.6138 104.589 71.2915 104.065 69.7946C103.557 68.0647 104.194 66.547 104.786 64.9393C105.426 63.3457 105.8 61.6575 105.892 59.9425C105.944 58.2576 105.751 56.5727 105.635 54.8942C105.618 54.8223 105.618 54.7475 105.635 54.6756C105.069 52.7784 103.911 51.1707 101.627 50.9778C95.7158 50.4762 95.3813 57.0228 95.4264 59.6852C95.4714 62.3476 95.7544 64.1483 93.7925 65.2608C91.8306 66.3734 90.4154 69.293 92.2873 71.6532C94.1591 74.0133 92.4802 73.1516 91.2323 75.248C89.9844 77.3445 90.306 79.9619 92.8662 80.9072C95.4264 81.8526 107.327 80.0776 108.42 78.978C108.808 78.5349 109.009 77.9584 108.98 77.3702C108.713 75.8903 107.92 74.5566 106.748 73.6146Z" fill="#007F68"/>
<path fill-rule="evenodd" clip-rule="evenodd" d="M114.235 24.5082C114.144 22.7551 113.565 21.0623 112.563 19.6207C111.671 18.1801 110.354 17.052 108.793 16.3924C107.994 16.0358 107.09 15.99 106.259 16.2638C105.465 16.5445 104.811 17.1204 104.432 17.8715C103.975 18.7668 103.771 19.7693 103.84 20.7718C103.896 21.9643 104.175 23.1358 104.663 24.2252C105.151 25.3659 105.825 26.4177 106.658 27.3378C107.36 28.1558 108.24 28.8025 109.231 29.2285C109.579 29.3676 109.945 29.4606 110.318 29.505C110.602 29.5431 110.889 29.5431 111.173 29.505C111.395 29.4743 111.611 29.4137 111.816 29.3249C111.947 29.2736 112.074 29.2134 112.196 29.1449L112.325 29.0548L111.546 27.6079L111.289 27.7494C111.028 27.8701 110.74 27.9231 110.453 27.9037C110.011 27.9084 109.574 27.823 109.166 27.6529C107.996 27.1163 107.031 26.2134 106.42 25.0805C105.651 23.9336 105.207 22.6005 105.133 21.222C105.009 20.1258 105.39 19.0327 106.169 18.2509C106.906 17.5993 107.967 17.4642 108.845 17.9101C110.026 18.401 111.023 19.2515 111.694 20.3409C112.441 21.4117 112.871 22.6708 112.936 23.9744C112.983 25.2906 112.696 25.8265 112.074 25.5821C111.852 25.4863 111.667 25.3217 111.546 25.1127C111.404 24.8964 111.324 24.6449 111.315 24.386L111.186 20.7718L109.9 20.2702V20.8426L109.784 20.6368C109.652 20.4485 109.496 20.2778 109.321 20.1287C109.115 19.9422 108.877 19.7941 108.619 19.6914C108.099 19.4355 107.474 19.5332 107.056 19.9358C106.582 20.4591 106.363 21.1652 106.458 21.8651C106.485 22.7294 106.743 23.5709 107.204 24.3024C107.587 24.9756 108.179 25.506 108.89 25.8136C109.188 25.9485 109.52 25.9889 109.842 25.9294C110.034 25.9012 110.216 25.8236 110.369 25.7043C110.43 25.6382 110.481 25.5647 110.524 25.4857L110.678 25.7879C110.826 26.0478 111.013 26.2841 111.231 26.4889C111.474 26.7408 111.768 26.9382 112.093 27.0677C112.626 27.3511 113.282 27.2373 113.688 26.7911C114.152 26.1262 114.347 25.3109 114.235 24.5082ZM109.99 23.2413C110.032 23.581 109.937 23.9235 109.726 24.1931C109.528 24.3889 109.227 24.4356 108.98 24.3088C108.635 24.1596 108.348 23.9022 108.163 23.5757C107.937 23.2163 107.811 22.8036 107.796 22.3795C107.751 22.0424 107.854 21.7024 108.079 21.4471C108.296 21.2515 108.611 21.2105 108.87 21.3442C109.201 21.4877 109.474 21.7364 109.649 22.0516C109.862 22.4126 109.979 22.8221 109.99 23.2413Z" fill="#F47B56"/>
<path fill-rule="evenodd" clip-rule="evenodd" d="M190.184 94.142C190.095 92.3886 189.515 90.6953 188.512 89.2545C187.652 87.7979 186.362 86.6431 184.82 85.9491C184.017 85.5951 183.113 85.5493 182.279 85.8204C181.486 86.105 180.832 86.6827 180.452 87.4346C179.995 88.3274 179.79 89.328 179.86 90.3285C179.915 91.5211 180.195 92.6926 180.683 93.7819C181.171 94.9246 181.845 95.9786 182.677 96.9009C183.381 97.7166 184.261 98.361 185.251 98.7851C185.597 98.9261 185.96 99.0212 186.331 99.0681C186.617 99.106 186.907 99.106 187.193 99.0681C187.414 99.0337 187.63 98.9732 187.836 98.888C187.967 98.8367 188.094 98.7766 188.216 98.708L188.345 98.6179L187.566 97.171L187.309 97.3125C187.047 97.4306 186.76 97.4836 186.473 97.4668C186.031 97.4666 185.594 97.3792 185.186 97.2096C184.017 96.6989 183.043 95.8265 182.407 94.7208C181.638 93.5745 181.193 92.241 181.121 90.8623C180.984 89.7637 181.356 88.6628 182.131 87.8719C182.871 87.2241 183.93 87.0917 184.807 87.5375C185.985 88.0286 186.979 88.8765 187.65 89.9619C188.396 91.0353 188.826 92.2964 188.891 93.6018C188.93 94.9202 188.666 95.4539 188.023 95.2096C187.801 95.1137 187.616 94.9491 187.495 94.7401C187.355 94.5227 187.275 94.2719 187.264 94.0134L187.135 90.3992L185.849 89.9041V90.4764L185.727 90.2706C185.594 90.0805 185.439 89.9077 185.263 89.7562C185.058 89.5693 184.82 89.4212 184.562 89.3189C184.044 89.064 183.421 89.1618 183.006 89.5632C182.528 90.0847 182.308 90.7924 182.407 91.4925C182.434 92.3598 182.694 93.2039 183.16 93.9362C183.542 94.6119 184.133 95.1447 184.845 95.4539C185.141 95.589 185.472 95.6273 185.791 95.5633C185.984 95.5365 186.166 95.4588 186.318 95.3382C186.377 95.271 186.429 95.1977 186.473 95.1195L186.627 95.4218C186.777 95.6808 186.963 95.9169 187.18 96.1228C187.425 96.3731 187.718 96.5701 188.042 96.7015C188.575 96.9826 189.23 96.869 189.638 96.425C190.101 95.7601 190.296 94.9447 190.184 94.142ZM185.945 92.8751C185.986 93.2157 185.888 93.5584 185.675 93.8269C185.476 94.0206 185.175 94.0647 184.929 93.9362C184.584 93.7845 184.297 93.525 184.112 93.1967C183.887 92.8395 183.76 92.429 183.745 92.007C183.7 91.6688 183.806 91.3279 184.035 91.0745C184.253 90.881 184.568 90.8426 184.826 90.978C185.155 91.1211 185.427 91.3701 185.598 91.6854C185.814 92.0455 185.934 92.4553 185.945 92.8751Z" fill="#F47B56"/>
<g style="mix-blend-mode:multiply" opacity="0.25">
<path d="M60.324 116.676L38.5498 104.29L16.7821 116.702C16.7821 116.702 28.8946 124.264 39.7334 130.618C46.6163 125.756 52.7336 120.194 60.324 116.676Z" fill="url(#paint4_linear_2_10)"/>
</g>
<defs>
<linearGradient id="paint0_linear_2_10" x1="123.88" y1="93.0298" x2="118.356" y2="109.429" gradientUnits="userSpaceOnUse">
<stop stop-color="#78B46A"/>
<stop offset="0.03" stop-color="#7F3500"/>
<stop offset="1" stop-color="white"/>
</linearGradient>
<linearGradient id="paint1_linear_2_10" x1="87.638" y1="126.59" x2="78.3454" y2="155.859" gradientUnits="userSpaceOnUse">
<stop stop-color="#78B46A"/>
<stop offset="0.03" stop-color="#7F3500"/>
<stop offset="1" stop-color="white"/>
</linearGradient>
<linearGradient id="paint2_linear_2_10" x1="64.6226" y1="65.182" x2="56.0253" y2="85.0579" gradientUnits="userSpaceOnUse">
<stop stop-color="#78B46A"/>
<stop offset="0.03" stop-color="#7F3500"/>
<stop offset="1" stop-color="white"/>
</linearGradient>
<linearGradient id="paint3_linear_2_10" x1="185.611" y1="82.9565" x2="182.253" y2="74.4329" gradientUnits="userSpaceOnUse">
<stop stop-color="white" stop-opacity="0.01"/>
<stop offset="0.99" stop-color="#DC841E"/>
</linearGradient>
<linearGradient id="paint4_linear_2_10" x1="31.9121" y1="94.437" x2="22.1352" y2="123.753" gradientUnits="userSpaceOnUse">
<stop stop-color="#78B46A"/>
<stop offset="0.03" stop-color="#7F3500"/>
<stop offset="1" stop-color="white"/>
</linearGradient>
</defs>
</svg>
